# AST/ASF file generated using VICON BodyLanguage
# -----------------------------------------------
:version 1.10
:name VICON
:units
  mass 1.0
  length 0.45
  angle deg
:documentation
   .ast/.asf automatically generated from VICON data using
   VICON BodyBuilder and BodyLanguage model FoxedUp or BRILLIANT.MOD
:root
   order TX TY TZ RX RY RZ
   axis XYZ
   position 0 0 0  
   orientation 0 0 0 
:bonedata
  begin
     id 1 
     name lhipjoint
     direction 0.521689 -0.742065 0.420928 
     length 2.47002 
     axis 0 0 0  XYZ
  end
  begin
     id 2 
     name lfemur
     direction 0.34202 -0.939693 0  
     length 7.24654  
     axis 0 0 20  XYZ
    dof rx ry rz
    limits (-160.0 20.0)
           (-70.0 70.0)
           (-60.0 70.0)
  end
  begin
     id 3 
     name ltibia
     direction 0.34202 -0.939693 0   
     length 8.04849   
     axis 0 0 20   XYZ
    dof rx
    limits (-10.0 170.0)
  end
  begin
     id 4 
     name lfoot
     direction 0.0745411 -0.2048 0.975961   
     length 1.72367   
     axis -90 7.62852e-016 20   XYZ
    dof rx rz
    limits (-45.0 90.0)
           (-70.0 20.0)
  end
  begin
     id 5 
     name ltoes
     direction 1.53556e-011 -4.21901e-011 1   
     length 0.87311   
     axis -90 7.62852e-016 20   XYZ
    dof rx
    limits (-90.0 20.0)
  end
  begin
     id 6 
     name rhipjoint
     direction -0.52849 -0.738415 0.418857   
     length 2.48223  
     axis 0 0 0  XYZ 
  end
  begin
     id 7 
     name rfemur
     direction -0.34202 -0.939693 0   
     length 7.15571   
     axis 0 0 -20   XYZ
    dof rx ry rz
    limits (-160.0 20.0)
           (-70.0 70.0)
           (-70.0 60.0)
  end
  begin
     id 8 
     name rtibia
     direction -0.34202 -0.939693 0   
     length 7.81659   
     axis 0 0 -20   XYZ
    dof rx
    limits (-10.0 170.0)
 end
 begin
     id 9 
     name rfoot
     direction -0.0917348 -0.252039 0.963359   
     length 1.84382  
     axis -90 -7.62852e-016 -20   XYZ
    dof rx rz
    limits (-45.0 90.0)
           (-20.0 70.0)
  end
  begin
     id 10 
     name rtoes
     direction -1.53551e-011 -4.21879e-011 1   
     length 0.927771   
     axis -90 -7.62852e-016 -20   XYZ
    dof rx
    limits (-90.0 20.0)
  end
  begin
     id 11 
     name lowerback
     direction 0.00583058 0.999822 0.0179296   
     length 2.1429   
     axis 0 0 0   XYZ
    dof rx ry rz
    limits (-20.0 45.0)
           (-30.0 30.0)
           (-30.0 30.0)
  end
  begin
     id 12 
     name upperback
     direction -0.0137999 0.999752 -0.0175071   
     length 2.14252   
     axis 0 0 0   XYZ
    dof rx ry rz
    limits (-20.0 45.0)
           (-30.0 30.0)
           (-30.0 30.0)
  end
  begin
     id 13 
     name thorax
     direction -0.0158036 0.99955 -0.0254909   
     length 2.1383   
     axis 0 0 0   XYZ
    dof rx ry rz
    limits (-20.0 45.0)
           (-30.0 30.0)
           (-30.0 30.0)
  end
  begin
     id 14 
     name lowerneck
     direction -0.0101179 0.999403 -0.0330262   
     length 1.65808   
     axis 0 0 0   XYZ
    dof rx ry rz
    limits (-20.0 45.0)
           (-30.0 30.0)
           (-30.0 30.0)
  end
  begin
     id 15 
     name upperneck
     direction 0.0497734 0.995978 -0.074501   
     length 1.5897   
     axis 0 0 0   XYZ
    dof rx ry rz
    limits (-20.0 45.0)
           (-30.0 30.0)
           (-30.0 30.0)
  end
  begin
     id 16
     name head
     direction 0.0189524 0.999519 -0.0245438  
     length 1.74024  
     axis 0 0 0   XYZ
    dof rx ry rz
    limits (-20.0 45.0)
           (-30.0 30.0)
           (-30.0 30.0)
  end
  begin
     id 17 
     name lclavicle
     direction 0.945604 0.324422 0.0241537  
     length 3.59089  
     axis 0 0 0   XYZ
    dof ry rz
    limits (-20.0 10.0)
           (0.0 20.0)
  end
  begin
     id 18 
     name lhumerus
     direction 1 -4.48964e-011 -2.63524e-027   
     length 5.2391   
     axis 180 -30 -90   XYZ
    dof rx ry rz
    limits (-60.0 90.0)
           (-90.0 90.0)
           (-90.0 90.0)
  end
  begin
     id 19
     name lradius
     direction 1 -4.48969e-011 3.86978e-028   
     length 3.31467   
     axis 180 -30 -90   XYZ
    dof rx
    limits (-10.0 170.0)
  end
  begin
     id 20
     name lwrist
     direction 1 -4.48963e-011 7.20928e-028   
     length 1.65734   
     axis -5.52449e-016 90 90   XYZ
    dof ry
    limits (-180.0 0.0)
 end
  begin
     id 21 
     name lhand
     direction 1 -4.48964e-011 1.44186e-027   
     length 0.9659   
     axis -9.20027e-016 90 90   XYZ
    dof rx rz
    limits (-90.0 90.0)
           (-45.0 45.0)
  end
  begin
     id 22 
     name lfingers
     direction 1 -4.48965e-011 2.88371e-027   
     length 0.778733   
     axis -1.84005e-015 90 90   XYZ
    dof rx
    limits (0.0 90.0)
  end
  begin
     id 23
     name lthumb
     direction 0.707107 -6.34931e-011 0.707107   
     length 1.11811   
     axis -90 45 2.85299e-015   XYZ
    dof rx rz
    limits (-45.0 45.0)
           (-45.0 45.0)
  end
  begin
     id 24 
     name rclavicle
     direction -0.923762 0.370785 0.0958234   
     length 3.54196  
     axis 0 0 0   XYZ 
    dof ry rz
    limits (-10.0 20.0)
           (-20.0 0.0)
  end
  begin
     id 25 
     name rhumerus
     direction -1 -4.48966e-011 1.18702e-017  
     length 5.30252   
     axis 180 30 90   XYZ
    dof rx ry rz
    limits (-90.0 60.0)
           (-90.0 90.0)
           (-90.0 90.0)
  end
  begin
     id 26 
     name rradius
     direction -1 -4.48966e-011 4.46736e-027   
     length 3.67875   
     axis 180 30 90   XYZ
    dof rx
    limits (-10.0 170.0)
  end
  begin
     id 27 
     name rwrist
     direction -1 -4.48966e-011 7.20928e-028   
     length 1.83937   
     axis -5.52449e-016 -90 -90   XYZ
    dof ry
    limits (-180.0 0.0)
  end
  begin
     id 28
     name rhand
     direction -1 -4.48973e-011 1.44186e-027   
     length 0.594811   
     axis -9.20027e-016 -90 -90   XYZ
    dof rx rz
    limits (-90.0 90.0)
           (-45.0 45.0)
  end
  begin
     id 29
     name rfingers
     direction -1 -4.48963e-011 2.88371e-027   
     length 0.479552   
     axis -1.84005e-015 -90 -90   XYZ
    dof rx
    limits (0.0 90.0)
  end
  begin
     id 30
     name rthumb
     direction -0.707107 -6.34932e-011 0.707107   
     length 0.688544   
     axis -90 -45 -2.85299e-015   XYZ
    dof rx rz
    limits (-45.0 45.0)
           (-45.0 45.0)
  end
:hierarchy
  begin
    root lhipjoint rhipjoint lowerback
    lhipjoint lfemur
    lfemur ltibia
    ltibia lfoot
    lfoot ltoes
    rhipjoint rfemur
    rfemur rtibia
    rtibia rfoot
    rfoot rtoes
    lowerback upperback
    upperback thorax
    thorax lowerneck lclavicle rclavicle
    lowerneck upperneck
    upperneck head
    lclavicle lhumerus
    lhumerus lradius
    lradius lwrist
    lwrist lhand lthumb
    lhand lfingers
    rclavicle rhumerus
    rhumerus rradius
    rradius rwrist
    rwrist rhand rthumb
    rhand rfingers
  end

#!OML:ASF E:\acrobat2\Project_11_07_03\Capture day 1\Session 1\Acrobat.ASF
:FULLY-SPECIFIED
:DEGREES
50
root 6.49281 18.0942 -32.2397 3.72331 2.95773 1.12005
lowerback -7.5198 1.42891 0.512057
upperback -1.54746 1.91316 -1.69397
thorax 2.68993 0.96155 -1.84923
lowerneck 0.303248 -1.29374 0.917676
upperneck 5.47453 -1.83779 2.12609
head 1.65544 -0.85825 0.481602
rclavicle 1.07716e-014 -1.86858e-014
rhumerus -42.0485 -10.3383 -75.8852
rradius 26.6977
rwrist 6.27376
rhand 4.2038 -22.5359
rfingers 7.12502
rthumb 29.6103 -50.193
lclavicle 1.07716e-014 -1.86858e-014
lhumerus -32.6517 -8.34496 84.6949
lradius 23.4478
lwrist 8.92583
lhand -5.93853 -13.0787
lfingers 7.12502
lthumb 19.8914 15.9233
rfemur 3.91331 9.09693 20.2357
rtibia 1.00934
rfoot -18.9439 -18.9997
rtoes 4.04905
lfemur 0.349577 -1.90091 -17.9362
ltibia 2.94402
lfoot -4.02335 -6.10613
ltoes 29.8832
51
root 6.49217 18.0948 -32.2408 3.70952 3.0237 1.07489
lowerback -7.56711 1.43285 0.576489
upperback -1.49869 1.91372 -1.68253
thorax 2.76837 0.962928 -1.87182
lowerneck 0.154481 -1.27974 0.891818
upperneck 5.52417 -1.82338 2.14504
head 1.69776 -0.84971 0.491154
rclavicle -6.85807e-015 1.19271e-015
rhumerus -41.9332 -10.2268 -75.9858
rradius 26.8943
rwrist 6.12594
rhand 4.06319 -22.7194
rfingers 7.12502
rthumb 29.476 -50.4003
lclavicle -6.85807e-015 1.19271e-015
lhumerus -32.5419 -8.37709 84.7344
lradius 23.5404
lwrist 8.98275
lhand -5.74525 -12.9997
lfingers 7.12502
lthumb 20.0772 15.983
rfemur 3.91038 9.10401 20.3026
rtibia 1.02077
rfoot -18.8805 -19.0344
rtoes 4.52241
lfemur 0.336267 -1.90349 -17.8831
ltibia 2.9738
lfoot -3.99407 -6.12661
ltoes 29.8158
52
root 6.49088 18.0968 -32.2403 3.66146 3.04217 1.12605
lowerback -7.47546 1.41633 0.494182
upperback -1.49296 1.89722 -1.65664
thorax 2.7191 0.953797 -1.8025
lowerneck 0.00511234 -1.27042 0.811811
upperneck 5.62049 -1.81337 2.12365
head 1.75541 -0.844736 0.497159
rclavicle 1.26849e-014 -6.75868e-015
rhumerus -41.8777 -10.0101 -76.0667
rradius 27.1347
rwrist 6.03348
rhand 3.95265 -23.0187
rfingers 7.12502
rthumb 29.3705 -50.7181
lclavicle 1.26849e-014 -6.75868e-015
lhumerus -32.4684 -8.27545 84.7898
lradius 23.5494
lwrist 9.06192
lhand -5.68188 -12.9986
lfingers 7.12502
lthumb 20.1381 15.9777
rfemur 3.98783 9.09692 20.2647
rtibia 1.02023
rfoot -18.9238 -19.0484
rtoes 4.17574
lfemur 0.39571 -1.87096 -17.9398
ltibia 2.97311
lfoot -3.98055 -6.16819
ltoes 29.8869
53
root 6.49134 18.098 -32.2368 3.64226 3.04268 1.33781
lowerback -7.37002 1.42476 0.292998
upperback -1.55176 1.9248 -1.72231
thorax 2.59639 0.965491 -1.75786
lowerneck 0.0357516 -1.28194 0.780858
upperneck 5.67753 -1.8284 2.11235
head 1.7687 -0.85263 0.498731
rclavicle 1.46107e-014 -2.38542e-015
rhumerus -41.916 -9.87595 -76.1431
rradius 27.2783
rwrist 5.91464
rhand 3.99076 -23.3842
rfingers 7.12502
rthumb 29.4069 -51.0773
lclavicle 1.46107e-014 -2.38542e-015
lhumerus -32.4554 -8.25908 84.8174
lradius 23.4825
lwrist 9.01207
lhand -5.63917 -13.2272
lfingers 7.12502
lthumb 20.1792 15.7448
rfemur 4.05893 8.97002 19.9963
rtibia 1.00201
rfoot -18.939 -18.9597
rtoes 3.76147
lfemur 0.462382 -1.80731 -18.2122
ltibia 2.95976
lfoot -4.00057 -6.2363
ltoes 28.8426
54
root 6.49046 18.0977 -32.2351 3.63379 3.05448 1.36809
lowerback -7.46432 1.46093 0.284457
upperback -1.49828 1.97597 -1.75674
thorax 2.70679 0.991637 -1.78064
lowerneck -0.0368412 -1.2436 0.650808
upperneck 5.77807 -1.78499 2.24837
head 1.81673 -0.829285 0.563399
rclavicle -7.05686e-015 -9.54166e-015
rhumerus -41.7655 -9.91858 -76.1993
rradius 27.2872
rwrist 5.89879
rhand 4.07075 -23.4201
rfingers 7.12502
rthumb 29.4832 -51.0997
lclavicle -7.05686e-015 -9.54166e-015
lhumerus -32.3451 -8.3551 84.8458
lradius 23.513
lwrist 8.96223
lhand -5.57784 -13.409
lfingers 7.12502
lthumb 20.2381 15.5567
rfemur 4.08843 8.97934 19.9674
rtibia 0.95354
rfoot -18.9622 -18.9709
rtoes 4.10667
lfemur 0.481758 -1.75644 -18.2378
ltibia 2.94294
lfoot -4.00323 -6.26489
ltoes 28.1729
55
root 6.48784 18.0968 -32.2355 3.62288 3.08314 1.24342
lowerback -7.37858 1.48704 0.419748
upperback -1.54644 1.99871 -1.74194
thorax 2.61415 1.00339 -1.84192
lowerneck 0.063228 -1.34611 0.837975
upperneck 5.63903 -1.91156 2.06766
head 1.7509 -0.894402 0.474114
rclavicle 5.71506e-016 1.15295e-014
rhumerus -41.7908 -9.86717 -76.2697
rradius 27.3652
rwrist 5.84221
rhand 3.93843 -23.0683
rfingers 7.12502
rthumb 29.3569 -50.7701
lclavicle 5.71506e-016 1.15295e-014
lhumerus -32.482 -8.56504 84.9587
lradius 23.6924
lwrist 8.97521
lhand -5.72212 -13.3424
lfingers 7.12502
lthumb 20.0995 15.6379
rfemur 4.09784 9.08292 20.1527
rtibia 0.923205
rfoot -19.0374 -19.0661
rtoes 4.50488
lfemur 0.465428 -1.73469 -18.0581
ltibia 2.94033
lfoot -3.97457 -6.26056
ltoes 28.6974
